<?xml version="1.0" encoding="UTF-8"?>
<svg id="Capa_1" data-name="Capa 1" xmlns="http://www.w3.org/2000/svg" viewBox="0 0 94.71 82.8">
  <defs>
    <style>
      .cls-1 {
        fill: #38d587;
        stroke: #38d587;
      }

      .cls-1, .cls-2 {
        stroke-linecap: round;
        stroke-linejoin: round;
      }

      .cls-2 {
        fill: none;
        stroke: #070322;
        stroke-width: 3px;
      }
    </style>
  </defs>
  <path id="Trazado_35" data-name="Trazado 35" class="cls-2" d="M13.95,41.4C13.95,13.9,19.85,8,47.35,8s33.4,5.9,33.4,33.4-5.89,33.4-33.4,33.4-33.4-5.89-33.4-33.4Z"/>
  <path id="arrows-clockwise-duotone-svgrepo-com" class="cls-1" d="M61.92,37.73s-.04,0-.06,0h-8.86c-.8,0-1.45-.65-1.45-1.45s.65-1.45,1.45-1.45h5.21l-3.68-3.68c-5.68-5.67-14.87-5.67-20.55,0-.57.57-1.49.57-2.06,0-.57-.57-.57-1.49,0-2.06,6.81-6.8,17.84-6.8,24.66,0l3.68,3.68v-5.19c0-.8.65-1.45,1.45-1.45s1.45.65,1.45,1.45v8.72s0,.1,0,.15c0,.02,0,.04,0,.06,0,.03,0,.06,0,.08,0,.02,0,.05,0,.07v.07s0,.04-.02.06,0,.05-.02.07c0,.02-.02.04-.03.06l-.03.07-.03.05-.04.07s-.03.04-.04.05l-.05.06s-.04.05-.06.08c0,0,0,.02-.03.03s-.02,0-.03.03l-.08.07-.06.05-.05.04s-.05.03-.07.04l-.05.03-.07.03-.06.03-.06.02-.07.02h-.22l-.06.03ZM60.68,51.71c-5.68,5.67-14.87,5.67-20.55,0l-3.68-3.68h5.21c.8,0,1.45-.65,1.45-1.45s-.65-1.45-1.45-1.45h-8.93s-.04,0-.06,0c-.02,0-.05,0-.08,0-.02,0-.04,0-.06,0l-.07.02-.06.02-.06.03-.06.03-.06.03s-.04.02-.06.04c-.02.02-.04.03-.06.04l-.06.05-.08.07s-.02,0-.03.03,0,.02-.03.03c-.02.02-.05.05-.06.08-.02.02-.03.04-.05.06l-.04.05s-.03.05-.04.07c-.01.02-.02.03-.03.05l-.03.07s0,.04-.03.06c-.01.02-.02.05-.02.07,0,.02,0,.04-.02.06v.07s0,.05,0,.07v9c0,.8.65,1.45,1.45,1.45s1.45-.65,1.45-1.45v-5.21l3.68,3.68c6.81,6.8,17.84,6.8,24.66,0,.57-.57.57-1.49,0-2.06-.57-.57-1.49-.57-2.06,0h0l-.07.05Z"/>
</svg>