<?xml version="1.0" encoding="UTF-8"?>
<svg id="Capa_1" data-name="Capa 1" xmlns="http://www.w3.org/2000/svg" viewBox="0 0 94.71 82.8">
  <defs>
    <style>
      .cls-1 {
        stroke: #38d587;
      }

      .cls-1, .cls-2 {
        fill: none;
        stroke-linecap: round;
        stroke-linejoin: round;
        stroke-width: 3px;
      }

      .cls-2 {
        stroke: #070322;
      }
    </style>
  </defs>
  <g>
    <path class="cls-2" d="M17.05,25.76l30.29,17.53,30.08-17.42"/>
    <path class="cls-2" d="M47.33,74.36v-31.11"/>
    <path class="cls-2" d="M40.24,8.74l-18.32,10.19c-4.15,2.3-7.55,8.06-7.55,12.79v19.38c0,4.73,3.4,10.5,7.55,12.79l18.32,10.19c3.91,2.16,10.32,2.16,14.23,0l18.32-10.19c4.15-2.3,7.55-8.06,7.55-12.79v-19.38c0-4.73-3.4-10.5-7.55-12.79l-18.32-10.19c-3.94-2.2-10.32-2.2-14.23,0Z"/>
  </g>
  <path class="cls-1" d="M64.48,45.65v-12.55L31.93,14.3"/>
</svg>