<?xml version="1.0" encoding="UTF-8"?>
<svg id="Capa_1" data-name="Capa 1" xmlns="http://www.w3.org/2000/svg" viewBox="0 0 94.71 82.8">
  <defs>
    <style>
      .cls-1 {
        fill: #38d587;
      }

      .cls-2 {
        fill: #070322;
      }
    </style>
  </defs>
  <path class="cls-2" d="M79.76,24.67c-.02-.93-.06-1.82-.1-2.67-.08-1.63-.19-3.11-.37-4.44-.43-3.22-1.19-5.47-2.46-7.22-.31-.42-.64-.81-1.01-1.18-.36-.36-.75-.7-1.17-1-1.75-1.28-4-2.03-7.22-2.46-2.49-.34-5.51-.47-9.07-.52-2.21-.03-4.62-.03-7.25-.03h-7.52c-6.86,0-12.28,0-16.31.55-3.98.53-6.49,1.56-8.41,3.47-1.9,1.91-2.93,4.42-3.46,8.39-.54,4.05-.54,9.46-.54,16.32v15.04c0,6.86,0,12.28.54,16.32.53,3.99,1.57,6.5,3.46,8.39,1.9,1.9,4.41,2.94,8.4,3.47,3.95.54,9.14.54,16.32.54h7.52c3.4,0,6.35,0,8.94-.06-1.03-.82-1.92-1.79-2.67-2.88-1.9.02-3.98.02-6.27.02h-7.52c-7.06,0-12.17,0-15.93-.52-3.3-.44-5.31-1.23-6.72-2.64-1.4-1.4-2.19-3.41-2.63-6.71-.52-3.85-.52-9.18-.52-15.93v-15.04c0-6.75,0-12.08.52-15.93.44-3.29,1.23-5.3,2.63-6.72,1.42-1.41,3.43-2.2,6.72-2.64,3.84-.51,9.18-.51,15.93-.51h7.52c2.24,0,4.32,0,6.25.02v5.61c0,4.96,4.03,8.99,8.98,8.99h10.44c.13,3.14.13,6.87.13,11.18v15.04c0,2.8,0,5.35-.04,7.66,1.1.87,2.06,1.9,2.84,3.08.12-3.07.12-6.65.12-10.74v-15.04c0-3.43,0-6.5-.07-9.21ZM66.34,19.62c-3.25,0-5.9-2.65-5.9-5.91v-5.55h.38c2.39.07,4.46.19,6.22.43,3.29.44,5.3,1.23,6.72,2.64.7.7,1.25,1.56,1.67,2.65.43,1.09.74,2.42.96,4.07.07.53.13,1.08.18,1.67h-10.23Z"/>
  <path class="cls-1" d="M79.71,59.66c-.78-1.18-1.74-2.21-2.84-3.08-2.3-1.84-5.21-2.93-8.37-2.93-7.42,0-13.46,6.04-13.46,13.47,0,2.81.87,5.42,2.34,7.58.75,1.09,1.64,2.06,2.67,2.88,2.31,1.88,5.25,3,8.45,3,7.43,0,13.47-6.04,13.47-13.46,0-2.76-.83-5.33-2.26-7.46ZM68.5,77.65c-.95,0-1.86-.12-2.73-.36-1.78-.48-3.37-1.41-4.64-2.67-1.95-1.9-3.16-4.56-3.16-7.5,0-5.81,4.72-10.54,10.53-10.54,3.35,0,6.33,1.56,8.25,4,1.38,1.72,2.21,3.87,2.28,6.22.01.1.01.21.01.32,0,5.81-4.72,10.53-10.54,10.53Z"/>
  <path class="cls-1" d="M66.41,70.83c.27.27.63.41.99.41s.72-.14.99-.41l4.44-4.44c.55-.55.55-1.44,0-1.98s-1.44-.55-1.98,0l-3.45,3.45-1.23-1.23c-.55-.55-1.44-.55-1.98,0s-.55,1.44,0,1.98l2.22,2.22Z"/>
</svg>