<?xml version="1.0" encoding="UTF-8"?>
<svg id="Capa_1" data-name="Capa 1" xmlns="http://www.w3.org/2000/svg" viewBox="0 0 94.71 82.8">
  <defs>
    <style>
      .cls-1 {
        stroke: #070322;
        stroke-width: 3px;
      }

      .cls-1, .cls-2 {
        fill: none;
        stroke-linecap: round;
        stroke-linejoin: round;
      }

      .cls-2 {
        stroke: #38d587;
        stroke-width: 4px;
      }
    </style>
  </defs>
  <path class="cls-1" d="M73.21,48.79c8.16,0,14.77,7.39,14.77,12.93,0,3.06-2.48,5.54-5.54,5.54h-1.85"/>
  <path class="cls-1" d="M65.82,37.71c6.12,0,11.08-4.96,11.08-11.08s-4.96-11.08-11.08-11.08"/>
  <path class="cls-1" d="M21.5,48.79c-8.16,0-14.77,7.39-14.77,12.93,0,3.06,2.48,5.54,5.54,5.54h1.85"/>
  <path class="cls-1" d="M28.89,37.71c-6.12,0-11.08-4.96-11.08-11.08s4.96-11.08,11.08-11.08"/>
  <path class="cls-2" d="M63.97,67.25H30.73c-3.06,0-5.54-2.48-5.54-5.54,0-9.23,11.08-12.93,22.16-12.93s22.16,3.69,22.16,12.93c0,3.06-2.48,5.54-5.54,5.54Z"/>
  <circle class="cls-2" cx="47.35" cy="26.63" r="11.08"/>
</svg>