<?xml version="1.0" encoding="UTF-8"?>
<svg id="Capa_1" data-name="Capa 1" xmlns="http://www.w3.org/2000/svg" viewBox="0 0 48.98 42.82">
  <defs>
    <style>
      .cls-1 {
        fill: #fff;
        stroke: #fff;
        stroke-miterlimit: 10;
        stroke-width: .5px;
      }
    </style>
  </defs>
  <path class="cls-1" d="M40.6,25.99c.01-.55.01-1.12.01-1.72v-7.25c0-1.93,0-3.63-.06-5.1-.04-1.01-.1-1.92-.21-2.74-.25-1.82-.71-3.18-1.48-4.28-.08-.13-.18-.25-.28-.37-.15-.19-.31-.38-.49-.56-1.24-1.24-2.85-1.93-5.2-2.25-.7-.09-1.47-.15-2.3-.19-1.58-.08-3.42-.08-5.55-.08h-3.72c-3.26,0-5.83,0-7.85.27-2.36.32-3.96,1.01-5.2,2.25-1.24,1.25-1.94,2.85-2.26,5.21-.27,2.02-.27,4.59-.27,7.84v7.25c0,3.25,0,5.82.27,7.85.32,2.35,1.02,3.96,2.26,5.2,1.24,1.24,2.84,1.94,5.2,2.25,2.02.27,4.59.27,7.85.27h3.72c1.5,0,2.86,0,4.09-.02,1.45.98,3.2,1.56,5.08,1.56,4.98,0,9.03-4.05,9.03-9.03,0-2.48-1-4.73-2.64-6.36ZM31.31,4.71c.41.04.8.08,1.16.13,1.65.22,2.66.63,3.39,1.36.63.62,1.02,1.46,1.25,2.72h-3.41c-1.32,0-2.39-1.07-2.39-2.39v-1.82ZM21.41,36.7c-3.31,0-5.71,0-7.52-.24-1.65-.23-2.67-.63-3.4-1.36-.73-.74-1.14-1.75-1.36-3.4-.24-1.82-.24-4.21-.24-7.53v-7.05c0-3.31,0-5.71.24-7.52.22-1.66.63-2.67,1.36-3.4.73-.73,1.75-1.14,3.4-1.36,1.82-.25,4.21-.25,7.52-.25h3.53c1.25,0,2.37,0,3.37.01v1.93c0,2.97,2.42,5.39,5.39,5.39h3.71c.06,1.43.06,3.14.06,5.2v6.81c-1.01-.39-2.11-.61-3.26-.61-4.98,0-9.03,4.05-9.03,9.03,0,1.58.4,3.06,1.12,4.35h-4.89ZM39.59,35.05c-.98,1.97-3.02,3.33-5.38,3.33-1.64,0-3.13-.66-4.22-1.73-1.12-1.1-1.81-2.62-1.81-4.3,0-3.33,2.7-6.03,6.03-6.03,1.2,0,2.31.35,3.25.96,1.67,1.07,2.78,2.94,2.78,5.07,0,.18-.01.36-.03.54-.06.77-.28,1.5-.62,2.16Z"/>
  <path class="cls-1" d="M32.55,34.88c.22.22.5.32.78.32s.57-.11.78-.32l3.5-3.5c.43-.43.43-1.13,0-1.56s-1.13-.43-1.56,0l-2.72,2.72-.97-.97c-.43-.43-1.13-.43-1.56,0s-.43,1.13,0,1.56l1.75,1.75Z"/>
</svg>