<?xml version="1.0" encoding="UTF-8"?>
<svg id="Capa_1" data-name="Capa 1" xmlns="http://www.w3.org/2000/svg" viewBox="0 0 94.71 82.8">
  <defs>
    <style>
      .cls-1 {
        fill-rule: evenodd;
        stroke: #070322;
        stroke-width: 2.92px;
      }

      .cls-1, .cls-2 {
        fill: none;
        stroke-linecap: round;
        stroke-linejoin: round;
      }

      .cls-2 {
        stroke: #38d587;
        stroke-width: 4px;
      }
    </style>
  </defs>
  <path class="cls-1" d="M77.85,17.76c-.51-3.79-1.46-5.97-3.05-7.56-1.59-1.58-3.77-2.55-7.55-3.05-3.87-.52-8.96-.53-16.13-.53h-7.52c-7.17,0-12.27.01-16.13.53-3.79.51-5.97,1.47-7.56,3.05-1.58,1.59-2.55,3.77-3.05,7.56-.52,3.87-.53,8.96-.53,16.13v15.04c0,7.17.01,12.26.53,16.13.51,3.78,1.47,5.97,3.05,7.55,1.59,1.59,3.77,2.55,7.56,3.05,3.85.53,8.96.53,16.13.53h7.52c7.17,0,12.26,0,16.13-.53,3.78-.51,5.96-1.46,7.55-3.05,1.59-1.58,2.55-3.77,3.05-7.55.52-3.87.53-8.96.53-16.13v-15.04c0-7.17-.01-12.26-.53-16.13Z"/>
  <line class="cls-2" x1="31.98" y1="26.37" x2="61.15" y2="26.37"/>
  <line class="cls-2" x1="31.98" y1="40.37" x2="61.15" y2="40.37"/>
  <line class="cls-2" x1="31.98" y1="54.37" x2="50.7" y2="54.37"/>
</svg>