<?xml version="1.0" encoding="UTF-8"?>
<svg id="Capa_1" data-name="Capa 1" xmlns="http://www.w3.org/2000/svg" viewBox="0 0 94.71 82.8">
  <defs>
    <style>
      .cls-1 {
        stroke: #070322;
        stroke-width: 3px;
      }

      .cls-1, .cls-2 {
        fill: none;
        stroke-linecap: round;
        stroke-linejoin: round;
      }

      .cls-2 {
        stroke: #38d587;
        stroke-width: 4px;
      }
    </style>
  </defs>
  <path class="cls-1" d="M80.25,20.71v7.96c0,5.2-3.29,8.49-8.49,8.49h-11.25V14.16c0-3.65,2.99-6.61,6.64-6.61,3.59.03,6.87,1.48,9.24,3.85,2.37,2.4,3.85,5.69,3.85,9.31Z"/>
  <path class="cls-1" d="M14.46,23.99v46.05c0,2.73,3.09,4.28,5.26,2.63l5.63-4.21c1.32-.99,3.16-.86,4.34.33l5.46,5.49c1.28,1.28,3.39,1.28,4.67,0l5.53-5.53c1.15-1.15,2.99-1.28,4.28-.3l5.62,4.21c2.17,1.61,5.26.07,5.26-2.63V14.13c0-3.62,2.96-6.58,6.58-6.58H27.62c-9.87,0-13.16,5.89-13.16,13.16v3.29Z"/>
  <path class="cls-2" d="M27.62,30.57h19.74"/>
  <path class="cls-2" d="M30.08,43.73h14.8"/>
</svg>