<?xml version="1.0" encoding="UTF-8"?>
<svg id="Capa_1" data-name="Capa 1" xmlns="http://www.w3.org/2000/svg" viewBox="0 0 48.98 42.82">
  <defs>
    <style>
      .cls-1 {
        fill: #070322;
        fill-rule: evenodd;
        stroke: #070322;
        stroke-miterlimit: 10;
      }
    </style>
  </defs>
  <path class="cls-1" d="M24.49,4.7c-2.24,0-4.06,1.82-4.06,4.06v.47c1.01-.02,2.11-.02,3.32-.02h1.48c1.21,0,2.32,0,3.32.02v-.47c0-2.24-1.82-4.06-4.06-4.06ZM31.26,9.36v-.59c0-3.74-3.03-6.77-6.77-6.77s-6.77,3.03-6.77,6.77v.59c-.26.02-.51.05-.75.08-1.82.23-3.33.7-4.61,1.76-1.28,1.06-2.02,2.45-2.58,4.2-.54,1.7-.95,3.88-1.46,6.62l-.04.2c-.73,3.87-1.3,6.92-1.4,9.33-.11,2.47.26,4.51,1.65,6.18,1.39,1.68,3.33,2.41,5.77,2.76,2.38.34,5.49.34,9.43.34h1.53c3.94,0,7.04,0,9.43-.34,2.44-.35,4.38-1.09,5.77-2.76s1.76-3.72,1.65-6.18c-.1-2.41-.68-5.46-1.4-9.33l-.04-.2c-.51-2.74-.92-4.93-1.46-6.62-.56-1.75-1.3-3.14-2.58-4.2s-2.78-1.53-4.61-1.76c-.24-.03-.49-.06-.75-.08ZM17.3,12.12c-1.55.19-2.48.55-3.21,1.16-.73.61-1.25,1.46-1.73,2.94-.48,1.52-.86,3.54-1.4,6.39-.75,4.01-1.28,6.87-1.38,9.06-.09,2.15.25,3.4,1.03,4.33.78.94,1.94,1.5,4.07,1.81,2.17.31,5.08.31,9.16.31h1.3c4.08,0,6.99,0,9.16-.31,2.13-.3,3.29-.87,4.07-1.81.78-.94,1.12-2.18,1.03-4.33-.1-2.19-.63-5.05-1.38-9.06-.53-2.85-.92-4.87-1.4-6.39-.47-1.48-1-2.34-1.73-2.94-.73-.61-1.66-.96-3.21-1.16-1.58-.2-3.64-.2-6.54-.2h-1.3c-2.9,0-4.96,0-6.54.2ZM19.29,18.27c.74.12,1.24.82,1.11,1.56l-1.81,10.84c-.12.74-.82,1.24-1.56,1.11s-1.24-.82-1.11-1.56l1.81-10.84c.12-.74.82-1.24,1.56-1.11ZM29.69,18.27c.74-.12,1.44.38,1.56,1.11l1.81,10.84c.12.74-.38,1.44-1.11,1.56s-1.44-.38-1.56-1.11l-1.81-10.84c-.12-.74.38-1.44,1.11-1.56Z"/>
</svg>