<?xml version="1.0" encoding="UTF-8"?>
<svg id="Capa_1" data-name="Capa 1" xmlns="http://www.w3.org/2000/svg" viewBox="0 0 48.98 42.82">
  <defs>
    <style>
      .cls-1 {
        fill: #070322;
        fill-rule: evenodd;
        stroke: #070322;
        stroke-miterlimit: 10;
      }
    </style>
  </defs>
  <path class="cls-1" d="M33.01,2.94l.12.03c2.03.55,3.65.98,4.92,1.44,1.3.47,2.36,1,3.23,1.82,1.27,1.19,2.16,2.73,2.55,4.42.27,1.16.21,2.35-.04,3.71-.24,1.33-.67,2.94-1.21,4.98l-.99,3.7c-.55,2.03-.98,3.65-1.44,4.92-.47,1.3-1,2.36-1.82,3.23-1.15,1.23-2.63,2.1-4.26,2.51-.48,1.09-1.17,2.08-2.05,2.9-.87.82-1.93,1.35-3.23,1.82-1.27.46-2.88.89-4.92,1.44l-.12.03c-2.03.55-3.65.98-4.97,1.21-1.36.24-2.54.31-3.71.04-1.69-.39-3.23-1.28-4.42-2.55-.82-.87-1.35-1.93-1.82-3.23-.46-1.27-.89-2.88-1.44-4.92l-.99-3.7c-.55-2.03-.98-3.65-1.21-4.97-.24-1.36-.31-2.54-.04-3.71.39-1.69,1.28-3.23,2.55-4.42.87-.82,1.93-1.35,3.23-1.82,1.27-.46,2.88-.89,4.92-1.44l.06-.02c.49-.13.95-.26,1.39-.37.72-2.59,1.36-4.42,2.61-5.75,1.19-1.27,2.73-2.16,4.42-2.55,1.16-.27,2.35-.21,3.71.04,1.33.24,2.94.67,4.97,1.21ZM16.46,13.09c-2.02.54-3.47.93-4.59,1.34-1.13.41-1.79.78-2.27,1.24-.87.81-1.48,1.87-1.75,3.02-.15.64-.15,1.41.07,2.59.21,1.2.61,2.7,1.18,4.81l.96,3.58c.57,2.11.97,3.61,1.38,4.75.41,1.13.78,1.79,1.24,2.27.81.87,1.87,1.48,3.02,1.75.64.15,1.41.15,2.59-.07,1.2-.21,2.7-.61,4.81-1.18,2.11-.57,3.61-.97,4.75-1.38,1.13-.41,1.79-.78,2.27-1.24.25-.24.49-.5.69-.77-.33-.05-.67-.11-1.03-.18-1.24-.25-2.74-.65-4.58-1.14l-.11-.03c-2.03-.55-3.65-.98-4.92-1.44-1.3-.47-2.36-1-3.23-1.82-1.27-1.19-2.16-2.73-2.55-4.42-.27-1.16-.21-2.35.04-3.71.24-1.33.67-2.94,1.21-4.97l.8-3ZM27.54,4.46c-1.18-.21-1.94-.22-2.59-.07-1.16.27-2.21.88-3.02,1.75-.81.86-1.3,2.19-2.17,5.36-.14.51-.29,1.07-.45,1.67l-.96,3.58c-.57,2.11-.97,3.61-1.18,4.81-.21,1.18-.22,1.94-.07,2.59.27,1.16.88,2.21,1.75,3.02.48.45,1.14.83,2.27,1.24,1.14.41,2.64.82,4.75,1.38,1.9.51,3.3.88,4.45,1.11,1.14.23,1.91.28,2.54.2.14-.02.27-.04.4-.07,1.16-.27,2.21-.88,3.02-1.75.45-.48.83-1.14,1.24-2.27.41-1.14.82-2.64,1.38-4.75l.96-3.58c.57-2.11.97-3.61,1.18-4.81.21-1.18.22-1.94.07-2.59-.27-1.16-.88-2.21-1.75-3.02-.48-.45-1.14-.83-2.27-1.24-1.14-.41-2.64-.82-4.75-1.38-2.11-.57-3.61-.97-4.81-1.18ZM23.12,17.35c.2-.74.96-1.18,1.7-.98l8.94,2.4c.74.2,1.18.96.98,1.7s-.96,1.18-1.7.98l-8.94-2.4c-.74-.2-1.18-.96-.98-1.7ZM21.68,22.71c.2-.74.96-1.18,1.7-.98l5.36,1.44c.74.2,1.18.96.98,1.7-.2.74-.96,1.18-1.7.98l-5.36-1.44c-.74-.2-1.18-.96-.98-1.7Z"/>
</svg>