<?xml version="1.0" encoding="UTF-8"?>
<svg id="Capa_1" data-name="Capa 1" xmlns="http://www.w3.org/2000/svg" viewBox="0 0 48.98 42.82">
  <defs>
    <style>
      .cls-1 {
        fill: #fff;
        fill-rule: evenodd;
        stroke: #fff;
        stroke-miterlimit: 10;
        stroke-width: 1.02px;
      }
    </style>
  </defs>
  <path class="cls-1" d="M22.54,5.16c1.52,0,2.03,0,2.5.12.45.11.88.29,1.28.53.41.25.78.61,1.86,1.68l6.28,6.28c1.07,1.07,1.43,1.44,1.68,1.86.24.4.42.83.53,1.28.11.47.12.99.12,2.5v10.26c0,1.68,0,2.85-.08,3.76-.07.89-.21,1.41-.41,1.8-.42.83-1.1,1.51-1.94,1.94-.39.2-.9.33-1.8.41-.91.07-2.08.08-3.76.08h-8.66c-1.68,0-2.85,0-3.76-.08-.89-.07-1.41-.21-1.8-.41-.83-.42-1.51-1.1-1.94-1.94-.2-.39-.33-.9-.41-1.8-.07-.91-.08-2.08-.08-3.76V13.14c0-1.68,0-2.85.08-3.76.07-.89.21-1.41.41-1.8.42-.83,1.1-1.51,1.94-1.94.39-.2.9-.33,1.8-.41.91-.07,2.08-.08,3.76-.08h2.39ZM25.74,2.41c-.85-.2-1.74-.2-3.02-.2h-.17s-2.39,0-2.39,0h-.06c-1.6,0-2.89,0-3.94.09-1.08.09-2.02.27-2.9.72-1.39.71-2.52,1.84-3.23,3.23-.45.87-.63,1.82-.72,2.9-.09,1.05-.09,2.34-.09,3.94v16.67c0,1.6,0,2.89.09,3.94.09,1.08.27,2.02.72,2.9.71,1.39,1.84,2.52,3.23,3.23.87.45,1.82.63,2.9.72,1.05.09,2.34.09,3.94.09h8.79c1.6,0,2.89,0,3.94-.09,1.08-.09,2.02-.27,2.9-.72,1.39-.71,2.52-1.84,3.23-3.23.45-.87.63-1.82.72-2.9.09-1.05.09-2.34.09-3.94v-10.49c0-1.28,0-2.17-.2-3.02-.18-.75-.48-1.47-.88-2.13-.46-.75-1.09-1.38-1.99-2.28l-.12-.12-6.28-6.28-.12-.12c-.91-.91-1.53-1.54-2.28-1.99-.66-.4-1.38-.7-2.13-.88h0ZM20.06,27.32c0-.82-.66-1.48-1.48-1.48s-1.48.66-1.48,1.48v3.94c0,.82.66,1.48,1.48,1.48s1.48-.66,1.48-1.48v-3.94ZM24.49,19.93c.82,0,1.48.66,1.48,1.48v9.85c0,.82-.66,1.48-1.48,1.48s-1.48-.66-1.48-1.48v-9.85c0-.82.66-1.48,1.48-1.48ZM31.87,17.47c0-.82-.66-1.48-1.48-1.48s-1.48.66-1.48,1.48v13.78c0,.82.66,1.48,1.48,1.48s1.48-.66,1.48-1.48v-13.78Z"/>
</svg>