<?xml version="1.0" encoding="UTF-8"?>
<svg id="Capa_1" data-name="Capa 1" xmlns="http://www.w3.org/2000/svg" viewBox="0 0 94.71 82.8">
  <defs>
    <style>
      .cls-1 {
        fill-rule: evenodd;
        stroke: #070322;
        stroke-width: 3px;
      }

      .cls-1, .cls-2 {
        fill: none;
        stroke-linecap: round;
        stroke-linejoin: round;
      }

      .cls-2 {
        stroke: #38d587;
        stroke-width: 4.07px;
      }
    </style>
  </defs>
  <path class="cls-1" d="M74.02,31.54c-.24-.98-.63-1.93-1.16-2.81-.56-.9-1.35-1.72-3.7-4.08l-13.79-13.79c-2.36-2.35-3.17-3.14-4.08-3.69-.87-.53-1.81-.94-2.81-1.17-1.03-.25-2.17-.26-5.5-.26h-5.24c-3.69,0-6.25,0-8.25.17-1.97.15-3.09.45-3.95.89-1.83.94-3.32,2.42-4.26,4.26-.43.85-.74,1.98-.89,3.95-.17,1.99-.17,4.56-.17,8.25v36.33c0,3.69,0,6.26.17,8.26.15,1.96.46,3.08.89,3.94.94,1.84,2.43,3.32,4.26,4.26.85.44,1.98.74,3.95.89,2,.17,4.56.18,8.25.18h19.03c3.69,0,6.26-.01,8.26-.18,1.96-.15,3.08-.45,3.95-.89,1.83-.94,3.31-2.42,4.24-4.26.44-.85.73-1.98.9-3.94.15-2,.17-4.58.17-8.26v-22.54c0-3.33-.02-4.46-.27-5.5Z"/>
  <line class="cls-2" x1="60.24" y1="33.03" x2="60.24" y2="64.36"/>
  <line class="cls-2" x1="46.8" y1="40.36" x2="46.8" y2="64.36"/>
  <line class="cls-2" x1="33.37" y1="52.36" x2="33.37" y2="64.36"/>
</svg>