<?xml version="1.0" encoding="UTF-8"?>
<svg id="Capa_1" data-name="Capa 1" xmlns="http://www.w3.org/2000/svg" viewBox="0 0 48.98 42.82">
  <defs>
    <style>
      .cls-1 {
        fill: #070322;
        fill-rule: evenodd;
      }
    </style>
  </defs>
  <path class="cls-1" d="M25.24,6.09c-.32-.09-.67-.09-.99,0-.09.03-.26.1-.61.36-.37.28-.82.68-1.52,1.3l-9.31,8.28c-1.14,1.01-1.47,1.32-1.69,1.66-.22.33-.38.68-.48,1.06-.1.39-.12.84-.12,2.37v6.81c0,1.68,0,2.85.06,3.77.06.9.18,1.43.34,1.83.54,1.31,1.58,2.34,2.89,2.89.4.17.93.28,1.83.34.92.06,2.09.06,3.77.06h10.66c1.68,0,2.85,0,3.77-.06.9-.06,1.43-.18,1.83-.34,1.31-.54,2.34-1.58,2.89-2.89.17-.4.28-.92.34-1.83.06-.92.06-2.09.06-3.77v-6.81c0-1.53-.01-1.97-.12-2.37-.1-.38-.26-.74-.48-1.06-.22-.34-.55-.64-1.69-1.66l-9.31-8.28c-.7-.62-1.15-1.02-1.52-1.3-.35-.26-.51-.33-.61-.36ZM23.25,2.68c.97-.28,2.01-.28,2.98,0,.68.2,1.24.54,1.76.94.49.37,1.05.87,1.69,1.43l9.36,8.32c.05.04.1.09.15.13.93.82,1.63,1.45,2.14,2.22.43.65.76,1.37.95,2.13.24.89.24,1.83.23,3.07v7.07c0,1.6,0,2.9-.07,3.95-.07,1.08-.23,2.04-.6,2.94-.9,2.18-2.63,3.91-4.81,4.81-.91.38-1.86.53-2.94.6-1.05.07-2.34.07-3.95.07h-10.79c-1.6,0-2.9,0-3.95-.07-1.08-.07-2.04-.23-2.94-.6-2.18-.9-3.91-2.63-4.81-4.81-.38-.91-.53-1.86-.6-2.94-.07-1.05-.07-2.34-.07-3.95v-6.87c0-.07,0-.13,0-.2,0-1.24,0-2.18.23-3.07.2-.76.52-1.47.95-2.13.51-.77,1.21-1.39,2.14-2.22.05-.04.1-.09.15-.13l9.36-8.32c.64-.57,1.19-1.06,1.68-1.43.52-.4,1.08-.74,1.76-.94Z"/>
</svg>