<?xml version="1.0" encoding="UTF-8"?>
<svg id="Capa_1" data-name="Capa 1" xmlns="http://www.w3.org/2000/svg" viewBox="0 0 48.98 42.82">
  <defs>
    <style>
      .cls-1 {
        fill: none;
        stroke: #fff;
        stroke-linecap: round;
        stroke-linejoin: round;
        stroke-width: 3.59px;
      }
    </style>
  </defs>
  <path class="cls-1" d="M42.79,9.9v4.43c0,2.89-1.83,4.72-4.72,4.72h-6.26V6.26c0-2.03,1.67-3.68,3.7-3.68,1.99.02,3.82.82,5.14,2.14,1.32,1.34,2.14,3.17,2.14,5.18Z"/>
  <path class="cls-1" d="M6.19,11.73v25.62c0,1.52,1.72,2.38,2.93,1.46l3.13-2.34c.73-.55,1.76-.48,2.42.18l3.04,3.06c.71.71,1.88.71,2.6,0l3.07-3.07c.64-.64,1.67-.71,2.38-.16l3.13,2.34c1.21.9,2.93.04,2.93-1.46V6.24c0-2.01,1.65-3.66,3.66-3.66H13.51c-5.49,0-7.32,3.28-7.32,7.32v1.83Z"/>
  <path class="cls-1" d="M13.51,15.39h10.98"/>
  <path class="cls-1" d="M14.88,22.71h8.23"/>
</svg>