<?xml version="1.0" encoding="UTF-8"?>
<svg id="Capa_1" data-name="Capa 1" xmlns="http://www.w3.org/2000/svg" viewBox="0 0 48.98 42.82">
  <defs>
    <style>
      .cls-1 {
        fill: none;
        stroke: #070322;
        stroke-linecap: round;
        stroke-linejoin: round;
        stroke-width: 3.59px;
      }
    </style>
  </defs>
  <path class="cls-1" d="M38.19,25.32c4.32,0,7.83,3.91,7.83,6.85,0,1.62-1.31,2.93-2.93,2.93h-.98M34.27,19.45c3.24,0,5.87-2.63,5.87-5.87s-2.63-5.87-5.87-5.87M10.79,25.32c-4.32,0-7.83,3.91-7.83,6.85,0,1.62,1.31,2.93,2.93,2.93h.98M14.71,19.45c-3.24,0-5.87-2.63-5.87-5.87s2.63-5.87,5.87-5.87M33.29,35.11H15.68c-1.62,0-2.93-1.31-2.93-2.93,0-4.89,5.87-6.85,11.74-6.85s11.74,1.96,11.74,6.85c0,1.62-1.31,2.93-2.93,2.93ZM30.36,13.58c0,3.24-2.63,5.87-5.87,5.87s-5.87-2.63-5.87-5.87,2.63-5.87,5.87-5.87,5.87,2.63,5.87,5.87Z"/>
</svg>