<?xml version="1.0" encoding="UTF-8"?>
<svg id="Capa_1" data-name="Capa 1" xmlns="http://www.w3.org/2000/svg" viewBox="0 0 48.98 42.82">
  <defs>
    <style>
      .cls-1 {
        fill: #fff;
        stroke-miterlimit: 10;
        stroke-width: 1.6px;
      }

      .cls-1, .cls-2 {
        stroke: #fff;
      }

      .cls-2 {
        fill: none;
        stroke-linecap: round;
        stroke-linejoin: round;
        stroke-width: 3.59px;
      }
    </style>
  </defs>
  <g id="Grupo_11" data-name="Grupo 11">
    <g id="euro-square-svgrepo-com">
      <path id="Trazado_35" data-name="Trazado 35" class="cls-2" d="M5.83,21.41C5.83,6.04,9.12,2.75,24.49,2.75s18.66,3.3,18.66,18.66-3.29,18.66-18.66,18.66-18.66-3.29-18.66-18.66Z"/>
    </g>
    <path id="arrows-clockwise-duotone-svgrepo-com" class="cls-1" d="M32.38,19.37s-.02,0-.04,0h-4.89c-.44,0-.8-.36-.8-.8s.36-.8.8-.8h2.87l-2.03-2.03c-3.13-3.13-8.21-3.13-11.35,0-.31.31-.82.31-1.14,0-.31-.31-.31-.82,0-1.14,3.76-3.75,9.85-3.75,13.61,0l2.03,2.03v-2.87c0-.44.36-.8.8-.8s.8.36.8.8v4.81s0,.05,0,.08c0,.01,0,.02,0,.03,0,.02,0,.03,0,.05,0,.01,0,.03,0,.04v.04s0,.02-.01.04,0,.02-.01.04c0,.01,0,.02-.02.03l-.02.04-.02.03-.02.04s-.01.02-.02.03l-.02.04s-.02.03-.04.04c0,0,0,.01-.02.02s-.01,0-.02.02l-.04.04-.03.02-.03.02s-.03.02-.04.02l-.03.02-.04.02-.03.02h-.04s-.04.02-.04.02h-.12l-.03.02ZM31.7,27.08c-3.13,3.13-8.21,3.13-11.35,0l-2.03-2.03h2.87c.44,0,.8-.36.8-.8s-.36-.8-.8-.8h-4.93s-.02,0-.04,0c-.01,0-.03,0-.04,0-.01,0-.02,0-.03,0h-.04s-.04.02-.04.02l-.04.02-.04.02-.03.02s-.02.01-.04.02c0,0-.02.02-.03.02l-.03.02-.04.04s-.01,0-.02.02,0,.01-.02.02c-.01.01-.03.03-.04.04,0,.01-.02.02-.02.04l-.02.03s-.02.03-.02.04c0,0-.01.02-.02.03l-.02.04s0,.02-.02.03c0,.01,0,.03-.01.04,0,.01,0,.02-.01.04v.04s0,.03,0,.04v4.97c0,.44.36.8.8.8s.8-.36.8-.8v-2.87l2.03,2.03c3.76,3.75,9.85,3.75,13.61,0,.31-.31.31-.82,0-1.14-.31-.31-.82-.31-1.14,0h0l-.04.03Z"/>
  </g>
</svg>