<?xml version="1.0" encoding="UTF-8"?>
<svg id="Capa_1" data-name="Capa 1" xmlns="http://www.w3.org/2000/svg" viewBox="0 0 48.98 42.82">
  <defs>
    <style>
      .cls-1, .cls-2 {
        fill: #fff;
      }

      .cls-2 {
        fill-rule: evenodd;
      }
    </style>
  </defs>
  <path class="cls-1" d="M10.62,29.34c0-1.09.89-1.98,1.98-1.98h3.96c1.09,0,1.98.89,1.98,1.98s-.89,1.98-1.98,1.98h-3.96c-1.09,0-1.98-.89-1.98-1.98Z"/>
  <path class="cls-1" d="M22.51,27.35c-1.09,0-1.98.89-1.98,1.98s.89,1.98,1.98,1.98h1.98c1.09,0,1.98-.89,1.98-1.98s-.89-1.98-1.98-1.98h-1.98Z"/>
  <path class="cls-2" d="M14.16,3.58c-1.62,0-2.96,0-4.05.09-1.13.09-2.17.3-3.15.8-1.45.75-2.63,1.93-3.38,3.38-.51.97-.71,2.01-.8,3.15-.09,1.09-.09,2.43-.09,4.05v12.73c0,1.62,0,2.96.09,4.05.09,1.13.3,2.17.8,3.15.75,1.45,1.93,2.63,3.38,3.38.97.51,2.01.71,3.15.8,1.09.09,2.43.09,4.05.09h20.65c1.62,0,2.96,0,4.05-.09,1.13-.09,2.17-.3,3.15-.8,1.45-.75,2.63-1.93,3.38-3.38.51-.97.71-2.01.8-3.15.09-1.09.09-2.43.09-4.05v-12.73c0-1.62,0-2.96-.09-4.05-.09-1.13-.3-2.17-.8-3.15-.75-1.45-1.93-2.63-3.38-3.38-.97-.51-2.01-.71-3.15-.8-1.09-.09-2.43-.09-4.05-.09H14.16ZM8.79,7.99c.31-.16.76-.3,1.65-.37.91-.08,2.08-.08,3.81-.08h20.49c1.73,0,2.9,0,3.81.08.88.07,1.33.21,1.65.37.72.38,1.31.97,1.69,1.69.16.31.3.76.37,1.65.05.58.07,1.28.07,2.16H6.66c0-.88.02-1.58.07-2.16.07-.88.21-1.33.37-1.65.38-.72.97-1.31,1.69-1.69ZM6.66,17.45v10.24c0,1.73,0,2.9.08,3.81.07.88.21,1.33.37,1.65.38.72.97,1.31,1.69,1.69.31.16.76.3,1.65.37.91.08,2.08.08,3.81.08h20.49c1.73,0,2.9,0,3.81-.08.88-.07,1.33-.21,1.65-.37.72-.38,1.31-.97,1.69-1.69.16-.31.3-.76.37-1.65.08-.91.08-2.08.08-3.81v-10.24H6.66Z"/>
</svg>