<?xml version="1.0" encoding="UTF-8"?>
<svg id="Capa_1" data-name="Capa 1" xmlns="http://www.w3.org/2000/svg" viewBox="0 0 48.98 42.82">
  <defs>
    <style>
      .cls-1 {
        fill: #070322;
        fill-rule: evenodd;
        stroke: #070322;
        stroke-miterlimit: 10;
      }
    </style>
  </defs>
  <path class="cls-1" d="M24.74,14.89c-3.6,0-6.52,2.92-6.52,6.52s2.92,6.52,6.52,6.52,6.52-2.92,6.52-6.52-2.92-6.52-6.52-6.52ZM20.83,21.41c0-2.16,1.75-3.91,3.91-3.91s3.91,1.75,3.91,3.91-1.75,3.91-3.91,3.91-3.91-1.75-3.91-3.91Z"/>
  <path class="cls-1" d="M24.7,2.72c-.77,0-1.42,0-1.95.04-.55.04-1.07.12-1.58.33-1.17.49-2.1,1.42-2.59,2.59-.25.61-.32,1.25-.35,1.95-.02.56-.3,1.03-.72,1.27-.42.24-.97.25-1.46,0-.62-.33-1.21-.59-1.86-.68-1.26-.17-2.53.18-3.54.95-.43.33-.76.74-1.07,1.2-.3.44-.62,1-1.01,1.67l-.04.08c-.39.67-.71,1.23-.94,1.7-.24.5-.43.99-.5,1.53-.17,1.26.18,2.53.95,3.54.4.52.92.9,1.52,1.28.48.3.74.78.74,1.26,0,.48-.26.96-.74,1.26-.59.37-1.11.75-1.52,1.28-.77,1.01-1.11,2.28-.95,3.54.07.54.26,1.03.5,1.53.23.48.56,1.04.94,1.7l.04.08c.39.67.71,1.23,1.01,1.67.31.46.64.87,1.07,1.2,1.01.77,2.28,1.11,3.54.95.65-.09,1.25-.35,1.86-.68.5-.26,1.04-.25,1.46,0,.42.24.7.71.72,1.27.03.7.09,1.34.35,1.95.49,1.17,1.42,2.1,2.59,2.59.5.21,1.03.29,1.58.33.53.04,1.17.04,1.95.04h.09c.77,0,1.42,0,1.95-.04.55-.04,1.07-.12,1.58-.33,1.17-.49,2.1-1.42,2.59-2.59.25-.61.32-1.25.35-1.95.02-.56.3-1.03.72-1.27.42-.24.97-.25,1.46,0,.62.33,1.21.59,1.86.68,1.26.17,2.53-.18,3.54-.95.43-.33.76-.74,1.07-1.2.3-.44.62-1,1.01-1.67l.04-.08c.39-.67.71-1.23.94-1.71.24-.5.43-.99.5-1.53.17-1.26-.18-2.53-.95-3.54-.4-.52-.92-.9-1.52-1.28-.48-.3-.74-.78-.74-1.26s.26-.96.74-1.26c.59-.37,1.11-.75,1.52-1.28.77-1.01,1.11-2.28.95-3.54-.07-.54-.26-1.03-.5-1.53-.23-.48-.56-1.04-.94-1.7l-.04-.08c-.39-.67-.71-1.23-1.01-1.67-.31-.46-.64-.87-1.07-1.2-1.01-.77-2.28-1.11-3.54-.95-.65.09-1.25.35-1.86.68-.5.26-1.04.25-1.46,0-.42-.24-.7-.71-.72-1.27-.03-.7-.09-1.34-.35-1.95-.49-1.17-1.42-2.1-2.59-2.59-.5-.21-1.03-.29-1.58-.33-.53-.04-1.17-.04-1.95-.04h-.09ZM22.17,5.49c.13-.06.34-.11.76-.14.43-.03.99-.03,1.81-.03s1.38,0,1.81.03c.42.03.62.08.76.14.53.22.96.64,1.18,1.18.07.17.13.43.15,1.05.05,1.38.76,2.7,2.03,3.43,1.26.73,2.77.68,3.99.04.55-.29.81-.37.99-.4.57-.08,1.15.08,1.61.43.12.09.26.24.5.59.24.36.52.84.93,1.56.41.72.69,1.2.88,1.59.18.38.24.58.26.72.08.57-.08,1.15-.43,1.61-.11.14-.31.33-.84.66-1.17.73-1.96,2.01-1.96,3.47,0,1.46.79,2.74,1.96,3.47.53.33.72.51.83.66.35.46.51,1.04.43,1.61-.02.14-.08.35-.26.72-.19.39-.47.87-.88,1.59-.41.72-.69,1.2-.93,1.56-.23.35-.38.5-.5.59-.46.35-1.04.51-1.61.43-.18-.02-.44-.1-.99-.4-1.22-.64-2.72-.69-3.99.04-1.26.73-1.97,2.06-2.02,3.43-.02.62-.08.88-.15,1.05-.22.53-.64.96-1.18,1.18-.13.06-.34.11-.76.14-.43.03-.99.03-1.81.03s-1.38,0-1.81-.03c-.42-.03-.62-.08-.76-.14-.53-.22-.96-.64-1.18-1.18-.07-.17-.13-.43-.15-1.05-.05-1.38-.76-2.7-2.03-3.43-1.26-.73-2.77-.68-3.99-.04-.55.29-.81.37-.99.4-.57.08-1.15-.08-1.61-.43-.12-.09-.26-.24-.5-.59-.24-.36-.52-.84-.93-1.56-.41-.72-.69-1.2-.88-1.59-.18-.38-.24-.58-.26-.72-.08-.57.08-1.15.43-1.61.11-.14.31-.33.83-.66,1.17-.73,1.96-2.01,1.96-3.47,0-1.46-.79-2.74-1.96-3.47-.53-.33-.72-.51-.83-.66-.35-.46-.51-1.04-.43-1.61.02-.14.08-.35.26-.72.19-.39.47-.87.88-1.59.41-.72.69-1.2.93-1.56.23-.35.38-.5.5-.59.46-.35,1.04-.51,1.61-.43.18.02.44.1.99.4,1.22.64,2.72.69,3.99-.04,1.26-.73,1.97-2.06,2.03-3.43.02-.62.08-.88.15-1.05.22-.53.64-.96,1.18-1.18Z"/>
</svg>