<?xml version="1.0" encoding="UTF-8"?>
<svg id="Capa_1" data-name="Capa 1" xmlns="http://www.w3.org/2000/svg" viewBox="0 0 48.98 42.82">
  <defs>
    <style>
      .cls-1 {
        fill: #fff;
        fill-rule: evenodd;
        stroke: #fff;
        stroke-miterlimit: 10;
        stroke-width: .5px;
      }
    </style>
  </defs>
  <path class="cls-1" d="M22.63,2.46h3.72c3.24,0,5.8,0,7.81.27,2.07.28,3.74.86,5.06,2.18,1.32,1.32,1.9,2.99,2.18,5.06.27,2.01.27,4.57.27,7.81v7.25c0,3.24,0,5.8-.27,7.81-.28,2.07-.86,3.74-2.18,5.06-1.32,1.32-2.99,1.9-5.06,2.18-2.01.27-4.57.27-7.81.27h-3.72c-3.24,0-5.8,0-7.81-.27-2.07-.28-3.74-.86-5.06-2.18-1.32-1.32-1.9-2.99-2.18-5.06-.27-2.01-.27-4.57-.27-7.81v-7.25c0-3.24,0-5.8.27-7.81.28-2.07.86-3.74,2.18-5.06,1.32-1.32,2.99-1.9,5.06-2.18,2.01-.27,4.57-.27,7.81-.27ZM15.17,5.35c-1.77.24-2.79.69-3.54,1.43-.75.75-1.19,1.77-1.43,3.54-.24,1.81-.25,4.2-.25,7.56v7.05c0,3.36,0,5.75.25,7.56.24,1.77.69,2.79,1.43,3.54.75.75,1.77,1.19,3.54,1.43,1.81.24,4.2.25,7.56.25h3.53c3.36,0,5.75,0,7.56-.25,1.77-.24,2.79-.69,3.54-1.43.75-.75,1.19-1.77,1.43-3.54.24-1.81.25-4.2.25-7.56v-7.05c0-3.36,0-5.75-.25-7.56-.24-1.77-.69-2.79-1.43-3.54-.75-.75-1.77-1.19-3.54-1.43-1.81-.24-4.2-.25-7.56-.25h-3.53c-3.36,0-5.75,0-7.56.25ZM16.12,14.36c0-.73.59-1.32,1.32-1.32h14.1c.73,0,1.32.59,1.32,1.32s-.59,1.32-1.32,1.32h-14.1c-.73,0-1.32-.59-1.32-1.32ZM16.12,21.41c0-.73.59-1.32,1.32-1.32h14.1c.73,0,1.32.59,1.32,1.32s-.59,1.32-1.32,1.32h-14.1c-.73,0-1.32-.59-1.32-1.32ZM16.12,28.46c0-.73.59-1.32,1.32-1.32h8.81c.73,0,1.32.59,1.32,1.32s-.59,1.32-1.32,1.32h-8.81c-.73,0-1.32-.59-1.32-1.32Z"/>
</svg>