<?xml version="1.0" encoding="UTF-8"?>
<svg id="Capa_1" data-name="Capa 1" xmlns="http://www.w3.org/2000/svg" viewBox="0 0 48.98 42.82">
  <defs>
    <style>
      .cls-1 {
        stroke-linecap: round;
        stroke-linejoin: round;
        stroke-width: 1.82px;
      }

      .cls-1, .cls-2 {
        fill: none;
        isolation: isolate;
        stroke: #070322;
      }

      .cls-2 {
        stroke-miterlimit: 133.33;
        stroke-width: 4px;
      }
    </style>
  </defs>
  <g>
    <path class="cls-2" d="M6.06,25.1c0-6.95,0-10.42,2.16-12.58,2.16-2.16,5.63-2.16,12.58-2.16h7.37c6.95,0,10.42,0,12.58,2.16,2.16,2.16,2.16,5.63,2.16,12.58s0,10.42-2.16,12.58c-2.16,2.16-5.63,2.16-12.58,2.16h-7.37c-6.95,0-10.42,0-12.58-2.16-2.16-2.16-2.16-5.63-2.16-12.58Z"/>
    <path class="cls-2" d="M31.86,10.35c0-3.47,0-5.21-1.08-6.29-1.08-1.08-2.82-1.08-6.29-1.08s-5.21,0-6.29,1.08c-1.08,1.08-1.08,2.82-1.08,6.29"/>
  </g>
  <g>
    <path class="cls-1" d="M29.19,22.01c-.82-1.27-2.11-2.09-3.56-2.09-2.48,0-4.49,2.4-4.49,5.37s2.01,5.37,4.49,5.37c1.45,0,2.74-.82,3.56-2.09"/>
    <line class="cls-1" x1="19.79" y1="23.95" x2="25.83" y2="23.95"/>
    <line class="cls-1" x1="19.79" y1="26.63" x2="25.83" y2="26.63"/>
  </g>
</svg>